<svg xmlns="http://www.w3.org/2000/svg" viewBox="0 0 130.02 43.71"><defs><style>.cls-1{fill:#820fd1;}.cls-2{fill:blue;stroke-width:0.71px;}.cls-2,.cls-3,.cls-4,.cls-5{stroke:#000;stroke-miterlimit:10;}.cls-3{fill:#03001f;stroke-width:0.36px;}.cls-4{fill:none;stroke-width:3.58px;}.cls-5{font-size:20.78px;fill:#ccc;stroke-width:0.81px;font-family:BerlinSansFB-Bold, Berlin Sans FB;font-weight:700;letter-spacing:0.03em;}</style></defs><g id="Layer_2" data-name="Layer 2"><g id="Layer_1-2" data-name="Layer 1"><path d="M49.65,35.4a2.52,2.52,0,0,1-1-1.13,4,4,0,0,1-.36-1.77V30.08a4,4,0,0,1,.36-1.78,2.57,2.57,0,0,1,1-1.13,3.33,3.33,0,0,1,1.63-.38,2.86,2.86,0,0,1,1.41.35,2.91,2.91,0,0,1,1,1,4.65,4.65,0,0,1,.56,1.65H52.64a2.3,2.3,0,0,0-.28-.75,1.5,1.5,0,0,0-.47-.47,1.13,1.13,0,0,0-.61-.16,1.39,1.39,0,0,0-.75.19,1.19,1.19,0,0,0-.47.56,2.09,2.09,0,0,0-.17.88V32.5a2.08,2.08,0,0,0,.17.87,1.19,1.19,0,0,0,.47.56,1.39,1.39,0,0,0,.75.19A1.17,1.17,0,0,0,51.9,34a1.41,1.41,0,0,0,.47-.47,2.54,2.54,0,0,0,.27-.75h1.63a4.73,4.73,0,0,1-.56,1.64,2.78,2.78,0,0,1-1,1,2.7,2.7,0,0,1-1.4.36A3.33,3.33,0,0,1,49.65,35.4Z"/><path d="M56.6,35.46a2.06,2.06,0,0,1-.88-.94,3.34,3.34,0,0,1-.3-1.48V32a3.32,3.32,0,0,1,.3-1.47,2.06,2.06,0,0,1,.88-.92,3.18,3.18,0,0,1,2.78,0,2.06,2.06,0,0,1,.88.92,3.32,3.32,0,0,1,.3,1.47v1a3.32,3.32,0,0,1-.3,1.47,2.08,2.08,0,0,1-.88.93,3.18,3.18,0,0,1-2.78,0Zm2.12-1.57a1.18,1.18,0,0,0,.27-.83V32a1.16,1.16,0,0,0-.27-.82,1.08,1.08,0,0,0-1.47,0A1.2,1.2,0,0,0,57,32v1a1.23,1.23,0,0,0,.26.83,1.08,1.08,0,0,0,1.47,0Z"/><path d="M62.18,35.3a2,2,0,0,1-.47-1.47,1.72,1.72,0,0,1,.53-1.39A2.29,2.29,0,0,1,63.83,32h1.49l.08,1.27H63.83a.82.82,0,0,0-.53.14.55.55,0,0,0-.18.45.51.51,0,0,0,.23.46,1.21,1.21,0,0,0,.67.15,2.23,2.23,0,0,0,.94-.15.49.49,0,0,0,.31-.47l.12.91a.85.85,0,0,1-.3.58,1.76,1.76,0,0,1-.65.35,2.82,2.82,0,0,1-.83.12A1.93,1.93,0,0,1,62.18,35.3Zm3.09-3.6A.82.82,0,0,0,65,31a1.14,1.14,0,0,0-.78-.24,1.92,1.92,0,0,0-.66.12,1.83,1.83,0,0,0-.58.32l-1-1a2.34,2.34,0,0,1,.94-.67,3.38,3.38,0,0,1,1.3-.24,3,3,0,0,1,1.33.27,2,2,0,0,1,.84.8,2.62,2.62,0,0,1,.29,1.27v4H65.27Z"/><path d="M69.31,35.44a2.23,2.23,0,0,1-.92-1,3.6,3.6,0,0,1-.32-1.57v-.68a3.53,3.53,0,0,1,.32-1.56,2.19,2.19,0,0,1,.92-1,2.89,2.89,0,0,1,1.46-.34,3.46,3.46,0,0,1,.92.12,2.44,2.44,0,0,1,.77.34,2.3,2.3,0,0,1,.58.54l-1,1.05a1.25,1.25,0,0,0-.51-.33,1.58,1.58,0,0,0-.61-.12,1.26,1.26,0,0,0-.93.33,1.36,1.36,0,0,0-.32.95v.68a1.38,1.38,0,0,0,.32,1,1.22,1.22,0,0,0,.93.34,1.47,1.47,0,0,0,.62-.13,1.36,1.36,0,0,0,.5-.36l1,1.1a2.3,2.3,0,0,1-.58.54,2.75,2.75,0,0,1-.78.34,3.78,3.78,0,0,1-.91.11A2.89,2.89,0,0,1,69.31,35.44Z"/><path d="M74.1,26.88h1.57v8.81H74.1Zm3.44,5a1,1,0,0,0-.25-.72.93.93,0,0,0-.71-.25.84.84,0,0,0-.67.26,1,1,0,0,0-.24.72l-.12-1.39a2.17,2.17,0,0,1,.65-.89,1.45,1.45,0,0,1,.94-.3A1.73,1.73,0,0,1,78.6,30a3.06,3.06,0,0,1,.51,1.89v3.82H77.54Z"/><path d="M80.58,26.88h1.57v1.66H80.58Zm0,2.52h1.57v6.29H80.58Z"/><path d="M83.61,29.4h1.57v6.29H83.61Zm3.44,2.48a1,1,0,0,0-.25-.72.92.92,0,0,0-.7-.25.86.86,0,0,0-.68.26,1,1,0,0,0-.24.72l-.12-1.39a2.26,2.26,0,0,1,.65-.89,1.45,1.45,0,0,1,.94-.3,1.72,1.72,0,0,1,1.46.67,3.06,3.06,0,0,1,.52,1.89v3.82H87.05Z"/><path d="M90.92,35.46a2,2,0,0,1-.68-.93A4,4,0,0,1,90,33.06v-1a4.1,4.1,0,0,1,.24-1.48,2,2,0,0,1,.68-.94A1.85,1.85,0,0,1,92,29.31a1.39,1.39,0,0,1,.86.3,2,2,0,0,1,.64.85l-.12,1.39a1.27,1.27,0,0,0-.11-.54A.67.67,0,0,0,93,31a.9.9,0,0,0-.48-.12.79.79,0,0,0-.68.32,1.45,1.45,0,0,0-.25.89v1a1.37,1.37,0,0,0,.25.87.81.81,0,0,0,.68.31,1,1,0,0,0,.48-.11.71.71,0,0,0,.3-.34,1.17,1.17,0,0,0,.11-.52l.08,1.43a1.69,1.69,0,0,1-.56.8,1.48,1.48,0,0,1-.9.28A1.85,1.85,0,0,1,90.92,35.46ZM91,38a1.93,1.93,0,0,1-.87-.74l1-1a1.48,1.48,0,0,0,.48.35,1.53,1.53,0,0,0,.59.13,1.12,1.12,0,0,0,.8-.29,1,1,0,0,0,.32-.79V29.4H95v6.1A3.28,3.28,0,0,1,94.65,37a2.2,2.2,0,0,1-.92.94,3,3,0,0,1-1.44.32A2.86,2.86,0,0,1,91,38Z"/><path d="M101,35.4a2.52,2.52,0,0,1-1-1.13,4.14,4.14,0,0,1-.35-1.77V30.08A4.15,4.15,0,0,1,100,28.3a2.57,2.57,0,0,1,1-1.13,3.36,3.36,0,0,1,1.63-.38,2.83,2.83,0,0,1,1.41.35,2.91,2.91,0,0,1,1,1,4.65,4.65,0,0,1,.56,1.65H104a2.3,2.3,0,0,0-.28-.75,1.48,1.48,0,0,0-.46-.47,1.19,1.19,0,0,0-.62-.16,1.39,1.39,0,0,0-.75.19,1.25,1.25,0,0,0-.47.56,2.1,2.1,0,0,0-.16.88V32.5a2.08,2.08,0,0,0,.16.87,1.25,1.25,0,0,0,.47.56,1.39,1.39,0,0,0,.75.19,1.17,1.17,0,0,0,.62-.16,1.32,1.32,0,0,0,.47-.47,2.08,2.08,0,0,0,.27-.75h1.63a4.53,4.53,0,0,1-.56,1.64,2.83,2.83,0,0,1-1,1,2.74,2.74,0,0,1-1.41.36A3.36,3.36,0,0,1,101,35.4Z"/><path d="M108.51,33.61a.52.52,0,0,0,.12.36.48.48,0,0,0,.35.12h.27v1.6h-.81a1.42,1.42,0,0,1-1.11-.44,1.78,1.78,0,0,1-.4-1.23V26.88h1.58Z"/><path d="M110.46,35.3a2,2,0,0,1-.47-1.47,1.76,1.76,0,0,1,.53-1.39,2.32,2.32,0,0,1,1.59-.47h1.5l.08,1.27h-1.57a.78.78,0,0,0-.53.14.55.55,0,0,0-.18.45.51.51,0,0,0,.22.46,1.25,1.25,0,0,0,.68.15,2.26,2.26,0,0,0,.94-.15.5.5,0,0,0,.3-.47l.12.91a.88.88,0,0,1-.29.58,1.76,1.76,0,0,1-.65.35,2.87,2.87,0,0,1-.83.12A2,2,0,0,1,110.46,35.3Zm3.09-3.6a.85.85,0,0,0-.27-.67,1.14,1.14,0,0,0-.78-.24,1.92,1.92,0,0,0-.66.12,1.73,1.73,0,0,0-.58.32l-1-1a2.3,2.3,0,0,1,1-.67,3.33,3.33,0,0,1,1.29-.24,3,3,0,0,1,1.33.27,1.91,1.91,0,0,1,.84.8,2.51,2.51,0,0,1,.29,1.27v4h-1.43Z"/><path d="M117.77,35.68a4.77,4.77,0,0,1-1-.29,3.76,3.76,0,0,1-.78-.47l1-1.28a4.21,4.21,0,0,0,.9.45,3.06,3.06,0,0,0,.9.16,2.33,2.33,0,0,0,.85-.13c.21-.09.31-.21.31-.36a.41.41,0,0,0-.13-.32.72.72,0,0,0-.34-.16,4.5,4.5,0,0,0-.58-.08l-.21,0-.22,0h-.09a5.88,5.88,0,0,1-1.07-.23,1.3,1.3,0,0,1-.68-.51,1.81,1.81,0,0,1-.28-1.1,2,2,0,0,1,.29-1.08,1.82,1.82,0,0,1,.83-.68,3.43,3.43,0,0,1,1.32-.23,3.94,3.94,0,0,1,.9.1,4.39,4.39,0,0,1,.87.27,4.07,4.07,0,0,1,.76.44l-.94,1.21a3.24,3.24,0,0,0-.81-.36,2.68,2.68,0,0,0-.81-.13A1.89,1.89,0,0,0,118,31a.35.35,0,0,0-.26.32.28.28,0,0,0,.14.24,1,1,0,0,0,.35.13l.61.09h.31a6.85,6.85,0,0,1,1.13.22,1.51,1.51,0,0,1,.75.54,1.9,1.9,0,0,1,.3,1.17,2,2,0,0,1-.3,1.12,2,2,0,0,1-.87.72,3.55,3.55,0,0,1-1.38.24A5.1,5.1,0,0,1,117.77,35.68Z"/><path d="M123.86,35.68a4.68,4.68,0,0,1-.94-.29,3.3,3.3,0,0,1-.78-.47l1-1.28a3.79,3.79,0,0,0,.9.45,2.94,2.94,0,0,0,.89.16,2.39,2.39,0,0,0,.86-.13q.3-.13.3-.36a.38.38,0,0,0-.13-.32.72.72,0,0,0-.34-.16,4.5,4.5,0,0,0-.58-.08l-.21,0-.21,0h-.1a6.08,6.08,0,0,1-1.07-.23,1.34,1.34,0,0,1-.68-.51,1.88,1.88,0,0,1-.28-1.1,2,2,0,0,1,.29-1.08,1.82,1.82,0,0,1,.83-.68,3.5,3.5,0,0,1,1.32-.23,4,4,0,0,1,.91.1,4.29,4.29,0,0,1,.86.27,4.07,4.07,0,0,1,.76.44l-.93,1.21a3.15,3.15,0,0,0-.82-.36,2.63,2.63,0,0,0-.81-.13,1.81,1.81,0,0,0-.74.12c-.18.07-.27.18-.27.32a.28.28,0,0,0,.14.24,1.17,1.17,0,0,0,.36.13,6,6,0,0,0,.61.09h.31a7.3,7.3,0,0,1,1.13.22,1.49,1.49,0,0,1,.74.54,1.9,1.9,0,0,1,.31,1.17,2,2,0,0,1-.3,1.12,2,2,0,0,1-.87.72,3.64,3.64,0,0,1-1.39.24A5.16,5.16,0,0,1,123.86,35.68Z"/><path class="cls-1" d="M30.24,40.44a19.88,19.88,0,0,1-6.06,1.61h0l-4.1-.7-9.73-9.74,6.05-4.87Z"/><path class="cls-1" d="M42,24.61a20,20,0,0,1-7.16,13l-.15.06-5.07-5.06,0-.15L24.21,7.24l-.14-.63Z"/><path class="cls-2" d="M27.74,27.85l1.49,3.78a2.16,2.16,0,0,0,2.26,1.2A2.4,2.4,0,0,0,33,32.35a1.43,1.43,0,0,0,.65-1.17,1.33,1.33,0,0,0-.11-.5l-9-23c-.29-.69-1-1-2.12-1a2.22,2.22,0,0,0-2.28,1.23L14.37,22.46c-.22.55.21,1.13,1,1.29l1.67.37a1.55,1.55,0,0,0,1.76-.7L21,17.65a1.6,1.6,0,0,1,2.71,0l1.91,4.82Z"/><path class="cls-3" d="M12.24,32.83l-.35-.08c-1.1-.27-1.77-1-1.49-1.6l2-4.34c.28-.61,1.39-.89,2.5-.62l.35.09c1.1.27,1.77,1,1.49,1.6l-2,4.33C14.46,32.83,13.34,33.1,12.24,32.83Z"/><rect class="cls-2" x="19.13" y="24.75" width="5.92" height="3.53" rx="1.18"/><path class="cls-4" d="M41.92,21.86a21,21,0,0,1-.15,2.52A20.08,20.08,0,0,1,30,40.21a19.8,19.8,0,0,1-6.06,1.61h0a19.82,19.82,0,0,1-2.05.1A20.07,20.07,0,1,1,41.92,21.86Z"/><text class="cls-5" transform="translate(49.04 23.87) scale(0.92 1)">AGILITY</text></g></g></svg>