<?xml version="1.0" encoding="utf-8"?>
<!-- Generator: Adobe Illustrator 16.0.0, SVG Export Plug-In . SVG Version: 6.00 Build 0)  -->
<!DOCTYPE svg PUBLIC "-//W3C//DTD SVG 1.1//EN" "http://www.w3.org/Graphics/SVG/1.1/DTD/svg11.dtd">
<svg version="1.1" xmlns="http://www.w3.org/2000/svg" xmlns:xlink="http://www.w3.org/1999/xlink" x="0px" y="0px" width="612px"
	 height="792px" viewBox="0 0 612 792" enable-background="new 0 0 612 792" xml:space="preserve">
<g id="Layer_8">
</g>
<g id="Layer_3">
</g>
<g id="Layer_2">
</g>
<g id="Layer_4">
</g>
<g id="Layer_5">
</g>
<g id="Layer_6">
</g>
<g id="Layer_7">
	<path fill="#C99E6F" d="M322.924,335.645c0,0-0.258,0.956,0,1.917c0.258,0.96-0.114,4.804-0.114,4.804l-1.128,2.162
		c0,0-0.084,1.681,1.333,2.642s1.417,1.921,5.917,3.123s7.25,1.682,9.75,1.682s13-2.402,13.25-3.123c0.25-0.72,2.5-3.358,2.5-5.042
		c0-1.684,0-4.086,0-4.086l-2-5.525l-0.668-7.91l0.516-2.77"/>
	<path fill="#E3B27D" d="M316.182,303.654l-1.25,7.306l1.25,5.529l-0.625,1.382l-1.208,1.035l-0.917,2.322l0.875,3.554l3.375,2.764
		l1.25,2.37c0,0,4.75,14.217,16.75,14.612c0,0,13.25-0.593,16.5-16.784c3.25-16.191,0-3.653,0-3.653h3.25c0,0,1.75-3.456,1.75-4.245
		c0-0.79,0-5.924,0-5.924l-2-1.382c0,0-2.5-1.382-2.5-2.172c0-0.79-1-5.331-1.75-6.713s-3-4.344-6-5.134
		c-3-0.79-15.25-1.58-17-1.185C326.182,297.73,316.182,303.654,316.182,303.654z"/>
	<path fill="#D1D3D4" d="M322.81,342.365l13.766,9.496c0,0,19.158-8.542,17.856-12.138s5.5,21.858,5,24.5
		s-3.584,16.574-3.667,18.015c-0.083,1.441,0,21.138,0,21.138l-1.333,26.422v13.451c0,0,5.553,9.128,5.026,9.849
		s1.474,6.245,2.474,9.607c1,3.363,3,7.687,2.25,10.569c-0.75,2.882-14.5,7.927-17.75,8.167s-22.5,0-22.5,0s-7.25-3.123-7.25-12.491
		c0-9.367,2.25-20.417,6.25-37.471c4-17.055-1.002-59.33-1.251-63.414s-2.499-12.01-2.249-16.093
		c0.25-4.083,2.249-10.329,2.249-10.329L322.81,342.365z"/>
	<path fill="#3C2415" d="M319.515,302.732c0,0-2.5,12.01,0,17.775c2.5,5.765-7-4.563-7-17.775c0-13.211,1.25-8.407,1.25-8.407
		s6.25-25.461,39.001-2.643c0,0,9.75,6.005,0,25.942c0,0,1.998-19.696-13.376-18.015
		C324.015,301.291,330.765,295.045,319.515,302.732z"/>
	<polygon fill="#231F20" points="333.474,353.895 335.599,356.857 335.432,358.459 334.807,360.14 329.932,472.074 334.807,479.04 
		342.432,472.555 340.514,357.258 343.515,354.135 338.682,351.974 	"/>
	<path fill="#104D99" d="M322.347,341.645c0,0-29.998,15.613-37.748,17.295c-7.75,1.681-18.75,66.296-20.5,78.306
		s8.25,8.888,8.25,8.888l22.25-9.368l-14.75,59.57l20.75,18.976c0,0,31.5-35.79,27.5-108.812
		C324.099,333.478,322.347,341.645,322.347,341.645z"/>
	<path fill="#104D99" d="M354.534,340.684c0,0,29.999,15.613,37.749,17.294c7.75,1.681,18.75,66.296,20.5,78.306
		s-8.25,8.888-8.25,8.888l-22.25-9.368l14.75,59.57l-20.75,18.976c0,0-31.5-35.79-27.5-108.812
		C352.783,332.517,354.534,340.684,354.534,340.684z"/>
	<path fill="#E3B27D" d="M320.974,401.774c0,0-1.375,10.849,3,15.493l15.021-13.171c0,0,0.188-43.396-0.563-46.278
		c0,0-1.749-5.205-3.417,1.602c-1.666,6.806-7.021,35.396-8.5,36.671C325.037,397.365,320.974,401.774,320.974,401.774z"/>
	<path fill="#E3B27D" d="M356.351,402.176c0,0,1.375,10.849-3,15.493l-15.021-13.171c0,0-0.188-43.396,0.563-46.279
		c0,0,1.75-5.205,3.417,1.601s7.022,35.396,8.5,36.671C352.286,397.767,356.351,402.176,356.351,402.176z"/>
	<path fill="#D1D3D4" d="M322.103,399.401c0,0-2.82,12.86,2.629,18.015c0,0-3.466,4.471-4.716,4.215
		c-1.25-0.255-6.499-13.286-4.167-19.759L322.103,399.401z"/>
	<path fill="#D1D3D4" d="M355.294,399.859c0,0,3.057,13.102-2.849,18.352c0,0,3.756,4.556,5.11,4.295
		c1.354-0.26,7.043-13.535,4.516-20.13L355.294,399.859z"/>
	<ellipse fill="#414042" cx="316.557" cy="321.648" rx="3.125" ry="5.225"/>
	<path fill="#414042" d="M317.432,325.071c0,0,1.125,11.65,13.875,9.248c0,0-11.743,5.373-14.75-9.248"/>
	<ellipse fill="#414042" cx="330.69" cy="334.559" rx="2.241" ry="1.682"/>
	<path fill="#0A3263" d="M499.667,496.906c0,9.921-5.464,17.965-12.199,17.965h-322.27c-6.737,0-12.198-8.044-12.198-17.965l0,0
		c0-9.919,5.461-17.962,12.198-17.962h322.27C494.203,478.944,499.667,486.987,499.667,496.906L499.667,496.906z"/>
	<polygon fill="#0067A9" points="292,476.581 188.03,476.581 176,422.576 279.111,422.576 	"/>
	<rect x="186.977" y="474.219" fill="#00497C" width="134.023" height="4.726"/>
	<rect x="176" y="422.576" fill="#008FC7" width="103.466" height="1.486"/>
	
		<rect x="283.255" y="422.156" transform="matrix(0.9742 -0.2257 0.2257 0.9742 -93.8193 75.7442)" fill="#008FC7" width="2.215" height="52.083"/>
	<path fill="#8FB8D2" d="M447.313,276.601c0,9.389-7.611,17-17,17h-51.5c-9.389,0-17-7.611-17-17v-15c0-9.389,7.611-17,17-17h51.5
		c9.389,0,17,7.611,17,17V276.601z"/>
	<path fill="#8FB8D2" d="M373.711,287c0,0-0.711,16.5-8.211,20s23-8.5,23-16"/>
	<g>
		<line fill="none" stroke="#4F729A" stroke-miterlimit="10" x1="374.508" y1="258.452" x2="400.497" y2="258.452"/>
		<line fill="none" stroke="#4F729A" stroke-miterlimit="10" x1="374.508" y1="276.202" x2="400.497" y2="276.202"/>
		<line fill="none" stroke="#4F729A" stroke-miterlimit="10" x1="404.848" y1="258.452" x2="422.842" y2="258.452"/>
		<line fill="none" stroke="#4F729A" stroke-miterlimit="10" x1="387.503" y1="266.952" x2="405.497" y2="266.952"/>
		<line fill="none" stroke="#4F729A" stroke-miterlimit="10" x1="374.508" y1="266.952" x2="381.508" y2="266.952"/>
	</g>
	<g>
		<polygon fill="#F08562" points="427.001,479.04 403.001,479.04 394.668,440.652 434.668,440.652 		"/>
		<path fill="#C46D50" d="M437.001,440.653c0,1.459-1.926,2.643-4.303,2.643h-36.063c-2.376,0-4.302-1.184-4.302-2.643l0,0
			c0-1.461,1.926-2.644,4.302-2.644h36.063C435.075,438.01,437.001,439.192,437.001,440.653L437.001,440.653z"/>
		<path fill="#39B54A" d="M419.243,438.01c0,0-0.031-0.736-0.007-1.99c0.146-7.455,2.251-33.222,24.507-31.51c26,2,21.25,6,22,7.5
			s-3.5,2.764-14.25,1.507s-13.25,3.993-13.25,3.993s8.5-2.967,9.75,2.142s-19.5,4.37-15.25,5.739s-1.164-1.631,1.918,3.619
			s-2.668,4.75-6.168,4.75s-4.806,4.25-4.806,4.25H419.243z"/>
		<path fill="#39B54A" d="M405.333,438.01c0,0-1.999-23.844-14.666-21.51s-19.668,13.686-16.834,21.51s5,11.324,9.167,11.657
			s4.167,0.333,4.167,0.333s5.833,1,0.833-3s-10.333-7.814-8.333-8.99s2.5,3.324,5,4.324s2-6.883-0.667-9.108
			s-5.834-10.226-1.667-6.559s7.001,5.848,5.834,1.674s-0.668-8.913,2.166-0.96s4.5,11.286,6,7.786s2,0.333,3-0.5
			s2.834,3.343,2.834,3.343H405.333z"/>
		<path fill="#39B54A" d="M411.125,438.01c0,0-4.25-6.385-2.125-7.635s-4.375-3.75-2.125-6.75s-4.75-4.25-1.375-8
			s-4.313-10.375,2.344-7.5c1.246,0.539,3.518-2.851,4.656-2.5c4.94,1.523,7.336,5.64,5.168,9.5c-2.668,4.75,4.125,2.472-2.168,8.25
			s0.875,5.375-0.875,8.125s-0.75,4.125-1.25,5s-0.125,1.51-0.125,1.51h-1.804"/>
	</g>
	<path fill="#8FB8D2" d="M469.242,346.8c0,12.98-10.522,23.502-23.503,23.502h-16.59c-12.979,0-23.502-10.522-23.502-23.502v-0.554
		c0-12.98,10.522-23.502,23.502-23.502h16.59c12.98,0,23.503,10.522,23.503,23.502V346.8z"/>
	<rect x="422.842" y="337.49" fill="#4F729A" width="29.206" height="19.7"/>
	<polyline fill="none" stroke="#8FB8D2" stroke-miterlimit="10" points="422.842,337.49 437.444,347.34 452.048,337.49 	"/>
	<rect x="289.094" y="473.395" fill="#008FC7" width="31.906" height="0.849"/>
	<path fill="#183368" d="M314.924,403.169c0,0-24.411,12.991-28.346,12.568"/>
	<path fill="#183368" d="M362.314,403.169c0,0,24.41,12.991,28.346,12.568"/>
	<path fill="#183368" d="M297.375,389.875"/>
	<path fill="#183368" d="M299.625,388c0,0-0.561,19.727-4.968,25.113C294.657,413.113,300.375,389.625,299.625,388z"/>
	<path fill="#183368" d="M378.26,388.875c0,0,0.561,19.727,4.969,25.113C383.229,413.988,377.51,390.5,378.26,388.875z"/>
	<path fill="#183368" d="M357.558,421.632c0,0,13.189,8.58,15.649,9.308"/>
	<path fill="#183368" d="M386.051,437.39c0,0,5.617,2.098,6.283,2.646"/>
	<path fill="#8A6C4C" d="M338.642,361.285c0,0,0.313,37.081,0,40.147"/>
	<path fill="#AEFFA2" d="M421.625,438.01c0,0,3.5-40.258,43.125-26.821C464.75,411.188,432.375,396.52,421.625,438.01z"/>
	<path fill="#AEFFA2" d="M411.517,438.01c0,0-2.087-30.383-2.457-30.177S413.199,435.686,411.517,438.01z"/>
	<path fill="#AEFFA2" d="M403.334,438c0,0-18.449-38.883-25.142-4.774C378.192,433.226,383.001,397.056,403.334,438z"/>
</g>
<g id="Layer_9">
	<path fill="#8FB8D2" d="M272.934,347.627c0,13.409-10.872,24.28-24.281,24.28h-17.14c-13.409,0-24.28-10.871-24.28-24.28v-0.573
		c0-13.41,10.871-24.281,24.28-24.281h17.14c13.409,0,24.281,10.872,24.281,24.281V347.627z"/>
	<g>
		<path fill="#4F729A" d="M228.37,332.079c0,0-6.105,4.069-3.5,10.743c2.605,6.674,17.255,22.463,21.569,22.138
			c0,0,4.232,1.954,9.359-2.685l-7.407-6.837c0,0-2.116,3.663-4.15,0.57c-2.034-3.093-11.802-13.592-11.802-13.592
			s-0.652-1.058,1.954-2.116C234.393,340.299,228.944,331.634,228.37,332.079z"/>
		<path fill="#4F729A" d="M229.915,331.428c0,0,5.616,7,5.698,7.569c0.081,0.569,2.604-0.57,1.384-3.419
			C235.776,332.73,232.275,328.172,229.915,331.428z"/>
		<path fill="#4F729A" d="M249.462,354.6c0,0,6.653,6.023,6.823,6.573c0.17,0.55,2.482-0.974,0.826-3.594
			S251.278,351.012,249.462,354.6z"/>
	</g>
	<g id="Layer_10">
	</g>
	<path fill="#8FB8D2" d="M310.797,274.723c0,13.627-11.047,24.675-24.675,24.675h-17.417c-13.627,0-24.675-11.048-24.675-24.675
		v-0.582c0-13.627,11.048-24.675,24.675-24.675h17.417c13.628,0,24.675,11.048,24.675,24.675V274.723z"/>
	<circle fill="#4F729A" cx="277.414" cy="274.433" r="14.503"/>
	<path fill="none" stroke="#8FB8D2" stroke-miterlimit="10" d="M272.972,259.928c0,0-8.104,11.871,0,29.008"/>
	<path fill="none" stroke="#8FB8D2" stroke-miterlimit="10" d="M282.056,259.928c0,0,8.104,11.87,0,29.008"/>
	<path fill="none" stroke="#8FB8D2" stroke-miterlimit="10" d="M262.91,270.875c0,0,12.844-7.983,29.537,0"/>
	<path fill="none" stroke="#8FB8D2" stroke-miterlimit="10" d="M292.444,278.284c0,0-12.843,7.983-29.535,0"/>
	<path fill="#183368" d="M319.201,421.219c0,0-31.009,19.919-34.83,19.434"/>
</g>
</svg>
