<svg xmlns="http://www.w3.org/2000/svg" viewBox="0 0 280.4 245.16"><defs><style>.cls-1{fill:#1e608a;}.cls-2{fill:#5ea9d6;}.cls-3,.cls-4{fill:none;stroke:#1e608a;stroke-miterlimit:10;}.cls-3{stroke-width:0.6px;}.cls-4{stroke-width:0.5px;}.cls-5{fill:#2980b9;}.cls-6{fill:#414042;}.cls-7{fill:#a7a9ac;}.cls-8{fill:#c49a6c;}.cls-9{fill:#9bd3ea;}.cls-10{fill:#f19331;}.cls-11{fill:#ffb85e;}.cls-12{fill:#58595b;}.cls-13{fill:#231f20;}</style></defs><g id="Layer_2" data-name="Layer 2"><g id="Layer_1-2" data-name="Layer 1"><g id="Layer_7" data-name="Layer 7"><polygon class="cls-1" points="100.87 48.1 100.87 124.7 99.03 124.7 99.03 128.67 69.18 128.67 69.18 141.93 154.85 141.93 154.85 128.67 149.12 128.85 149.12 124.7 147.28 124.66 147.15 48.1 148.71 48.1 148.71 46.02 98.93 46.02 98.96 47.97 100.87 47.93 100.87 48.1"/><rect class="cls-2" x="105.71" y="52.63" width="19.9" height="10.19"/><rect class="cls-2" x="105.71" y="77.66" width="19.9" height="10.19"/><rect class="cls-2" x="105.71" y="102.06" width="19.9" height="10.19"/><rect class="cls-2" x="129.43" y="52.63" width="11.31" height="19.75"/><rect class="cls-2" x="129.43" y="77.28" width="11.31" height="19.75"/><rect class="cls-2" x="129.43" y="101.56" width="11.31" height="19.75"/><polygon class="cls-1" points="123.5 45.65 123.5 43.82 126.02 43.82 126.02 18.73 119.68 18.73 119.68 14.89 153.96 14.89 153.96 18.54 140.74 18.66 141.01 43.7 143.88 43.7 143.94 45.65 123.5 45.65"/><path class="cls-1" d="M131.81,4.33l-5,10.56h2.59l4-8.93,4.09,8.93h2.59L135.76,4.33S133.18,5.65,131.81,4.33Z"/><ellipse class="cls-3" cx="116.89" cy="16.68" rx="1.91" ry="1.79"/><ellipse class="cls-3" cx="156.76" cy="16.68" rx="1.91" ry="1.79"/><ellipse class="cls-3" cx="133.48" cy="2.09" rx="1.91" ry="1.79"/><line class="cls-4" x1="116.54" y1="14.89" x2="131.57" y2="2.76"/><line class="cls-4" x1="135.7" y1="2.09" x2="156.76" y2="14.89"/><line class="cls-4" x1="114.98" y1="17.86" x2="114.98" y2="27.42"/><line class="cls-4" x1="158.66" y1="18.48" x2="158.66" y2="86.31"/><polyline class="cls-1" points="114.74 27.22 112.7 29.54 112.22 29.54 112.22 30.99 112.22 36.62 118.45 36.62 118.45 29.58 117.79 29.54 115.34 27.04"/><polygon class="cls-1" points="157.13 86.5 160.13 86.5 159.38 88.7 158.05 88.7 157.13 86.5"/><path class="cls-1" d="M158.36,89.33V88.7H159v.63a3.94,3.94,0,0,1,1.6,1.89c.24,1,0,.13,0,.13a2.66,2.66,0,0,1-1.23,2,2,2,0,0,1-2.52-2l.89,0s1.53,2.39,2-.07c0,0-.88-1.47-1.39-1.38Z"/><polygon class="cls-1" points="188.02 49.36 188.02 125.96 186.18 125.96 186.18 129.93 156.33 129.93 156.33 143.19 242 143.19 242 129.93 236.27 130.12 236.27 125.96 234.43 125.92 234.29 49.36 235.86 49.36 235.86 47.28 186.08 47.28 186.11 49.23 188.02 49.19 188.02 49.36"/><rect class="cls-5" x="192.86" y="53.89" width="19.9" height="10.19"/><rect class="cls-5" x="192.86" y="78.92" width="19.9" height="10.19"/><rect class="cls-5" x="192.86" y="103.32" width="19.9" height="10.19"/><rect class="cls-2" x="216.58" y="53.89" width="11.31" height="19.75"/><rect class="cls-2" x="216.58" y="78.54" width="11.31" height="19.75"/><rect class="cls-5" x="216.58" y="102.82" width="11.31" height="19.75"/><polygon class="cls-1" points="210.65 46.91 210.65 45.08 213.17 45.08 213.17 19.99 206.83 19.99 206.83 16.15 241.11 16.15 241.11 19.8 227.89 19.92 228.16 44.95 231.02 44.95 231.09 46.91 210.65 46.91"/><path class="cls-1" d="M219,5.59l-5,10.56h2.58l4-8.93,4.09,8.93h2.59L222.91,5.59S220.33,6.91,219,5.59Z"/><ellipse class="cls-3" cx="204.04" cy="17.94" rx="1.91" ry="1.79"/><ellipse class="cls-3" cx="243.9" cy="17.94" rx="1.91" ry="1.79"/><ellipse class="cls-3" cx="220.63" cy="3.35" rx="1.91" ry="1.79"/><line class="cls-4" x1="203.69" y1="16.15" x2="218.72" y2="4.02"/><line class="cls-4" x1="222.85" y1="3.35" x2="243.9" y2="16.15"/><line class="cls-4" x1="202.13" y1="19.12" x2="202.13" y2="28.68"/><line class="cls-4" x1="245.81" y1="19.73" x2="245.81" y2="87.57"/><polyline class="cls-1" points="201.89 28.48 199.84 30.8 199.37 30.8 199.37 32.25 199.37 37.88 205.6 37.88 205.6 30.84 204.94 30.8 202.49 28.3"/><polygon class="cls-1" points="244.28 87.76 247.28 87.76 246.53 89.96 245.2 89.96 244.28 87.76"/><path class="cls-1" d="M245.51,90.59V90h.68v.63a3.94,3.94,0,0,1,1.6,1.89c.24,1,0,.13,0,.13a2.66,2.66,0,0,1-1.23,2,2,2,0,0,1-2.52-2l.89,0s1.53,2.39,2-.07c0,0-.88-1.47-1.39-1.38v-.6Z"/><polygon class="cls-1" points="22.62 70.72 22.62 125.41 21.31 125.41 21.31 128.24 0 128.24 0 137.71 61.16 137.71 61.16 128.24 57.07 128.38 57.07 125.41 55.75 125.38 55.66 70.72 56.78 70.72 56.78 69.24 21.24 69.24 21.26 70.64 22.62 70.61 22.62 70.72"/><rect class="cls-2" x="26.08" y="73.96" width="14.21" height="7.27"/><rect class="cls-2" x="26.08" y="91.83" width="14.21" height="7.27"/><rect class="cls-2" x="26.08" y="109.25" width="14.21" height="7.27"/><rect class="cls-2" x="43.01" y="73.96" width="8.08" height="14.1"/><rect class="cls-2" x="43.01" y="91.56" width="8.08" height="14.1"/><rect class="cls-5" x="43.01" y="108.89" width="8.08" height="14.1"/><polygon class="cls-1" points="38.77 68.97 38.77 67.67 40.58 67.67 40.58 49.76 36.05 49.76 36.05 47.02 60.52 47.02 60.52 49.62 51.08 49.71 51.28 67.58 53.32 67.58 53.37 68.97 38.77 68.97"/><path class="cls-1" d="M44.71,39.48,41.16,47H43l2.87-6.38L48.8,47h1.85l-3.12-7.54S45.68,40.42,44.71,39.48Z"/><ellipse class="cls-3" cx="34.06" cy="48.3" rx="1.36" ry="1.28"/><ellipse class="cls-3" cx="62.52" cy="48.3" rx="1.36" ry="1.28"/><ellipse class="cls-3" cx="45.9" cy="37.88" rx="1.36" ry="1.28"/><line class="cls-4" x1="33.81" y1="47.02" x2="44.54" y2="38.36"/><line class="cls-4" x1="47.48" y1="37.88" x2="62.52" y2="47.02"/><line class="cls-4" x1="32.69" y1="49.14" x2="32.69" y2="55.96"/><line class="cls-4" x1="63.88" y1="49.58" x2="63.88" y2="98"/><polyline class="cls-1" points="32.52 55.82 31.06 57.48 30.73 57.48 30.73 58.51 30.73 62.53 35.18 62.53 35.18 57.5 34.7 57.47 32.95 55.69"/><polygon class="cls-1" points="62.78 98.14 64.93 98.14 64.39 99.71 63.44 99.71 62.78 98.14"/><path class="cls-1" d="M63.66,100.16v-.45h.49v.45a2.83,2.83,0,0,1,1.14,1.35c.17.74,0,.09,0,.09a1.89,1.89,0,0,1-.88,1.41,1.46,1.46,0,0,1-1.8-1.41l.64,0s1.09,1.7,1.41-.05c0,0-.64-1-1-1v-.43Z"/></g><g id="Layer_3" data-name="Layer 3"><g id="Layer_6" data-name="Layer 6"><path class="cls-6" d="M88.87,124.86s25.08-15.34,25.46-17.17,3.87-17.83-6.13-18.08S75,111.75,75,111.75Z"/><path class="cls-7" d="M102,134.86s11.67,77,16.67,82.66,48.66,2.34,52,0-5-76-5-76S102.71,140.86,102,134.86Z"/><path class="cls-8" d="M110.37,89.6s14.5-7.71,21.25-5.92a2.07,2.07,0,0,1-2,2.11c-2.12.32-5.87,2.44-5.87,2.44a4.44,4.44,0,0,1,1.75,2.25c.75,1.75,1.37,7.25-2.75,9.5s-7.53,4.38-7.53,4.38l-.74-9.91Z"/></g><path class="cls-8" d="M168.87,64.6s5.5,30,15,37.23,31.25-11.72,31.25-11.72,2.67-29.89,1.61-30.5-6.36-11.5-6.36-11.5Z"/><path class="cls-8" d="M55.37,97.11v4.72l29.75,15,2.75-6s17-3.1,15.5-27.17-49.92-3.33-49.92-3.33"/></g><g id="Layer_4" data-name="Layer 4"><path class="cls-9" d="M184.37,101.83s2.5-9.22,30.5-12.22c0,0,6.25,2.75,4.75,4.5s-26.25,2-35.25,10.25Z"/><path class="cls-9" d="M55.37,101.83s-6.25,4-4,6.53,38.79,15.25,40.52,20.5-2.27-8.5-6-8.5a8.39,8.39,0,0,0-6.15-7.5C73.62,110.86,55.37,101.83,55.37,101.83Z"/></g><g id="Layer_2-2" data-name="Layer 2"><path class="cls-10" d="M171.12,73.11s-8.5,2-6.5-7.5,69-10.5,58.75-9.25c0,0-55.14,6.06-54.14,10.06s1.89,1.94,1.89,1.94S173.12,70.11,171.12,73.11Z"/><path class="cls-11" d="M167.25,62.89s-.88-24.53,13.62-31.28a13.21,13.21,0,0,1,8-5.25s3.25-2,8,0,6.5,4.5,6.5,4.5,9.5.63,17.75,25.07C221.12,55.93,190.12,55.17,167.25,62.89Z"/><path class="cls-11" d="M50.12,73.28s1.25-41.42,47-31.92a3.66,3.66,0,0,1,1.5,5.5s9,4.1,10,26.42c0,0,8.5,3.58,4.75,4.83S69.12,97.46,50.12,73.28Z"/><path class="cls-10" d="M51.15,66.42s-11.46,5.44,0,13.69,47.33,9.82,52.4,1.5c0,0,10.19-1,9.82-3.5s-7,3.25-9.5,1.5-26,17.5-53-5.75c0,0-4-7,.5-6"/><path class="cls-12" d="M174.37,64.6s9,22,29.75,18.76,7.5-22.57,12.25-25S177.62,60.85,174.37,64.6Z"/><path class="cls-12" d="M53.45,81.5s1.92,10.86,1.92,15.61,25,6.5,26.85,2.5,10.12-9.51,9.65-11.25S56.27,87.9,53.45,81.5Z"/></g><g id="Layer_5" data-name="Layer 5"><path class="cls-13" d="M184.37,104.36s-2.5,4-1.5,5.75-32.5,12.25-34.25,17.25-14,43.75-23.75,50.5-10.54,2-10.54,2-9-2.5-9.21,3.5,5.75,23.75,5.75,23.75,26,7.25,56.37-33.5v65.25s69.63,16,89.63-3l-3.5-43,19,2.5s7.5-6,8-10-6-59-14.5-75.5-38-8-38-8l-6.75-7.38S193.37,96.23,184.37,104.36Z"/><path class="cls-6" d="M52.34,104.36s-11-5.57-12-.87-13,7.37-13,30.37,12.67,64,14.33,76,71.36,18.67,71.68,17.33-8.27-34.33-3.34-74l-.67-6.58-4.26-6.09L91.89,128.86Z"/></g></g></g></svg>