<svg xmlns="http://www.w3.org/2000/svg" viewBox="0 0 129.09 42.95"><defs><style>.cls-1{font-size:20.78px;fill:#ccc;stroke-width:0.81px;font-family:BerlinSansFB-Bold, Berlin Sans FB;font-weight:700;letter-spacing:0.03em;}.cls-1,.cls-3{stroke:#000;stroke-miterlimit:10;}.cls-2{fill:#750ebc;}.cls-3{fill:none;stroke-width:3.52px;}.cls-4{fill:#aa14e6;}.cls-5{fill:#4d4dff;}.cls-6{fill:#0039b5;}.cls-7{fill:#666;}.cls-8{fill:#4d4d4d;}.cls-9{fill:#333;}.cls-10{fill:#1a1aff;}</style></defs><g id="Layer_2" data-name="Layer 2"><g id="Layer_1-2" data-name="Layer 1"><path d="M48.72,34.54a2.55,2.55,0,0,1-1-1.12,4,4,0,0,1-.36-1.78V29.22a4,4,0,0,1,.36-1.78,2.55,2.55,0,0,1,1-1.12,3.22,3.22,0,0,1,1.63-.39,2.76,2.76,0,0,1,1.41.36,2.83,2.83,0,0,1,1,1A4.53,4.53,0,0,1,53.34,29H51.71a2.16,2.16,0,0,0-.28-.74,1.35,1.35,0,0,0-.47-.48,1.23,1.23,0,0,0-.61-.16,1.39,1.39,0,0,0-.75.19,1.19,1.19,0,0,0-.47.56,2.12,2.12,0,0,0-.17.88v2.42a2.12,2.12,0,0,0,.17.88,1.21,1.21,0,0,0,.47.55,1.39,1.39,0,0,0,.75.19A1.17,1.17,0,0,0,51,33.1a1.25,1.25,0,0,0,.47-.47,2.13,2.13,0,0,0,.27-.75h1.63a4.86,4.86,0,0,1-.56,1.65,2.85,2.85,0,0,1-1,1,2.8,2.8,0,0,1-1.4.35A3.22,3.22,0,0,1,48.72,34.54Z"/><path d="M55.67,34.6a2,2,0,0,1-.88-.93,3.38,3.38,0,0,1-.3-1.49v-1a3.25,3.25,0,0,1,.3-1.46,2,2,0,0,1,.88-.93,3.18,3.18,0,0,1,2.78,0,2,2,0,0,1,.88.93,3.25,3.25,0,0,1,.3,1.46v1a3.26,3.26,0,0,1-.3,1.47,2,2,0,0,1-.88.93,3.18,3.18,0,0,1-2.78,0ZM57.79,33a1.18,1.18,0,0,0,.27-.83v-1a1.18,1.18,0,0,0-.27-.82,1.08,1.08,0,0,0-1.47,0,1.22,1.22,0,0,0-.26.82v1a1.23,1.23,0,0,0,.26.83,1.08,1.08,0,0,0,1.47,0Z"/><path d="M61.25,34.44A2,2,0,0,1,60.78,33a1.75,1.75,0,0,1,.53-1.4,2.34,2.34,0,0,1,1.59-.47h1.49l.08,1.27H62.91a.83.83,0,0,0-.54.15.55.55,0,0,0-.18.45.53.53,0,0,0,.23.46,1.31,1.31,0,0,0,.67.14,2.2,2.2,0,0,0,.94-.15.49.49,0,0,0,.31-.47l.12.92a.85.85,0,0,1-.3.57,1.64,1.64,0,0,1-.65.36,3.2,3.2,0,0,1-.83.11A1.93,1.93,0,0,1,61.25,34.44Zm3.09-3.59a.83.83,0,0,0-.28-.68,1.19,1.19,0,0,0-.78-.23,1.91,1.91,0,0,0-.66.11,2,2,0,0,0-.58.32l-1-1a2.34,2.34,0,0,1,.94-.67,3.38,3.38,0,0,1,1.3-.24,2.87,2.87,0,0,1,1.33.28,1.86,1.86,0,0,1,.84.8,2.61,2.61,0,0,1,.29,1.26v4H64.34Z"/><path d="M68.38,34.58a2.23,2.23,0,0,1-.92-1A3.57,3.57,0,0,1,67.15,32v-.67a3.53,3.53,0,0,1,.31-1.56,2.26,2.26,0,0,1,.92-1,2.92,2.92,0,0,1,1.46-.34,3.46,3.46,0,0,1,.92.12,2.75,2.75,0,0,1,.78.34,2.13,2.13,0,0,1,.57.55l-1,1a1.5,1.5,0,0,0-.51-.33,1.58,1.58,0,0,0-.61-.12,1.22,1.22,0,0,0-.93.34,1.33,1.33,0,0,0-.32.95V32A1.38,1.38,0,0,0,69,33a1.22,1.22,0,0,0,.93.34,1.63,1.63,0,0,0,.62-.12,1.52,1.52,0,0,0,.5-.37l1,1.11a2.27,2.27,0,0,1-.58.53,2.75,2.75,0,0,1-.78.34,3.34,3.34,0,0,1-.91.11A2.92,2.92,0,0,1,68.38,34.58Z"/><path d="M73.17,26h1.57v8.81H73.17Zm3.44,5a1,1,0,0,0-.25-.71.94.94,0,0,0-.71-.26.87.87,0,0,0-.67.26,1,1,0,0,0-.24.72l-.12-1.39a2.34,2.34,0,0,1,.65-.89,1.45,1.45,0,0,1,.94-.3,1.73,1.73,0,0,1,1.46.67A3.08,3.08,0,0,1,78.18,31v3.82H76.61Z"/><path d="M79.65,26h1.57v1.66H79.65Zm0,2.52h1.57v6.29H79.65Z"/><path d="M82.68,28.54h1.57v6.29H82.68ZM86.12,31a1,1,0,0,0-.25-.71.93.93,0,0,0-.7-.26.9.9,0,0,0-.68.26,1,1,0,0,0-.24.72l-.12-1.39a2.34,2.34,0,0,1,.65-.89,1.45,1.45,0,0,1,.94-.3,1.72,1.72,0,0,1,1.46.67A3.08,3.08,0,0,1,87.7,31v3.82H86.12Z"/><path d="M90,34.6a2,2,0,0,1-.68-.93,4,4,0,0,1-.24-1.47v-1a4.12,4.12,0,0,1,.24-1.49,2,2,0,0,1,.68-.94,1.87,1.87,0,0,1,1.09-.32,1.43,1.43,0,0,1,.87.3,2.08,2.08,0,0,1,.63.85L92.46,31a1.46,1.46,0,0,0-.1-.55.73.73,0,0,0-.31-.34.89.89,0,0,0-.47-.12.82.82,0,0,0-.69.32,1.45,1.45,0,0,0-.24.89v1a1.37,1.37,0,0,0,.24.87.81.81,0,0,0,.69.31.88.88,0,0,0,.47-.11.76.76,0,0,0,.31-.33,1.43,1.43,0,0,0,.1-.53l.08,1.43a1.64,1.64,0,0,1-.56.8,1.48,1.48,0,0,1-.9.28A1.8,1.8,0,0,1,90,34.6Zm.1,2.53a2,2,0,0,1-.87-.75l1-1a1.48,1.48,0,0,0,.48.35,1.37,1.37,0,0,0,.59.13,1.16,1.16,0,0,0,.81-.29,1,1,0,0,0,.31-.78V28.54H94v6.11a3.23,3.23,0,0,1-.31,1.48,2.12,2.12,0,0,1-.91.94,3.1,3.1,0,0,1-1.45.32A3,3,0,0,1,90.09,37.13Z"/><path d="M100.07,34.54a2.51,2.51,0,0,1-1-1.12,4.18,4.18,0,0,1-.35-1.78V29.22A4.18,4.18,0,0,1,99,27.44a2.51,2.51,0,0,1,1-1.12,3.2,3.2,0,0,1,1.63-.39,2.73,2.73,0,0,1,1.4.36,2.76,2.76,0,0,1,1,1,4.53,4.53,0,0,1,.56,1.64h-1.63a2.16,2.16,0,0,0-.28-.74,1.42,1.42,0,0,0-.46-.48,1.29,1.29,0,0,0-.61-.16,1.41,1.41,0,0,0-.76.19,1.25,1.25,0,0,0-.47.56,2.13,2.13,0,0,0-.16.88v2.42a2.13,2.13,0,0,0,.16.88,1.27,1.27,0,0,0,.47.55,1.41,1.41,0,0,0,.76.19,1.16,1.16,0,0,0,.61-.16,1.25,1.25,0,0,0,.47-.47,2,2,0,0,0,.27-.75h1.63a4.65,4.65,0,0,1-.56,1.65,2.91,2.91,0,0,1-1,1,2.82,2.82,0,0,1-1.4.35A3.2,3.2,0,0,1,100.07,34.54Z"/><path d="M107.58,32.75a.49.49,0,0,0,.12.36.48.48,0,0,0,.35.12h.27v1.6h-.81a1.42,1.42,0,0,1-1.11-.43,1.8,1.8,0,0,1-.4-1.23V26h1.58Z"/><path d="M109.54,34.44a2,2,0,0,1-.48-1.46,1.78,1.78,0,0,1,.53-1.4,2.38,2.38,0,0,1,1.59-.47h1.5l.08,1.27h-1.57a.8.8,0,0,0-.53.15.55.55,0,0,0-.18.45.52.52,0,0,0,.22.46,1.35,1.35,0,0,0,.68.14,2.26,2.26,0,0,0,.94-.15.5.5,0,0,0,.3-.47l.13.92a.94.94,0,0,1-.3.57,1.64,1.64,0,0,1-.65.36,3.26,3.26,0,0,1-.83.11A1.91,1.91,0,0,1,109.54,34.44Zm3.08-3.59a.85.85,0,0,0-.27-.68,1.19,1.19,0,0,0-.78-.23,2,2,0,0,0-1.24.43l-1-1a2.37,2.37,0,0,1,1-.67,3.37,3.37,0,0,1,1.29-.24,2.84,2.84,0,0,1,1.33.28,1.86,1.86,0,0,1,.84.8,2.5,2.5,0,0,1,.29,1.26v4h-1.43Z"/><path d="M116.84,34.82a4.11,4.11,0,0,1-.94-.29,3.3,3.3,0,0,1-.78-.47l1-1.28a3.36,3.36,0,0,0,.91.45,2.66,2.66,0,0,0,.89.16,2.22,2.22,0,0,0,.86-.13q.3-.13.3-.36a.38.38,0,0,0-.13-.32.83.83,0,0,0-.34-.16c-.14,0-.33-.05-.58-.08l-.21,0-.21,0h-.1a6,6,0,0,1-1.07-.22,1.36,1.36,0,0,1-.68-.52,1.85,1.85,0,0,1-.28-1.1,2,2,0,0,1,.29-1.07,1.83,1.83,0,0,1,.83-.69,3.43,3.43,0,0,1,1.32-.23,3.94,3.94,0,0,1,.9.1,4.41,4.41,0,0,1,.87.28,4,4,0,0,1,.76.43l-.93,1.21a4.26,4.26,0,0,0-.82-.36,3,3,0,0,0-.81-.13,1.81,1.81,0,0,0-.74.12c-.18.08-.27.18-.27.32a.29.29,0,0,0,.14.25.91.91,0,0,0,.35.12l.61.09h.11l.1,0h.1a5.94,5.94,0,0,1,1.13.22,1.49,1.49,0,0,1,.75.53,2,2,0,0,1,.3,1.18,2.15,2.15,0,0,1-.29,1.12,1.91,1.91,0,0,1-.88.71,3.55,3.55,0,0,1-1.38.24A5.16,5.16,0,0,1,116.84,34.82Z"/><path d="M122.93,34.82a4.11,4.11,0,0,1-.94-.29,3.3,3.3,0,0,1-.78-.47l1-1.28a3.16,3.16,0,0,0,.9.45,2.66,2.66,0,0,0,.89.16,2.19,2.19,0,0,0,.86-.13q.3-.13.3-.36a.38.38,0,0,0-.13-.32.83.83,0,0,0-.34-.16c-.14,0-.33-.05-.58-.08l-.21,0-.21,0h-.1a6.19,6.19,0,0,1-1.07-.22,1.41,1.41,0,0,1-.68-.52,1.86,1.86,0,0,1-.27-1.1,2,2,0,0,1,.28-1.07,1.83,1.83,0,0,1,.83-.69,3.5,3.5,0,0,1,1.32-.23,4,4,0,0,1,.91.1,4.32,4.32,0,0,1,.86.28,3.74,3.74,0,0,1,.76.43l-.93,1.21a4,4,0,0,0-.82-.36,3,3,0,0,0-.81-.13,1.81,1.81,0,0,0-.74.12c-.18.08-.27.18-.27.32a.27.27,0,0,0,.15.25.85.85,0,0,0,.35.12l.61.09h.1l.1,0h.11a6.1,6.1,0,0,1,1.13.22,1.47,1.47,0,0,1,.74.53,2,2,0,0,1,.31,1.18,2.06,2.06,0,0,1-.3,1.12,1.93,1.93,0,0,1-.87.71,3.64,3.64,0,0,1-1.39.24A5.16,5.16,0,0,1,122.93,34.82Z"/><text class="cls-1" transform="translate(48.11 23.01) scale(0.92 1)">AGILITY</text><path class="cls-2" d="M35.32,35.52c-.21.21-.43.41-.65.6L34,36.7a19.65,19.65,0,0,1-10.51,4.39c-.66.06-1.33.1-2,.1A19.26,19.26,0,0,1,18.62,41L8.84,31.2h22Z"/><path class="cls-2" d="M40.89,24.91l-.12.62a19.58,19.58,0,0,1-4.53,9L32.92,31.2,22.11,6.06Z"/><path class="cls-3" d="M41.19,21.48A18.3,18.3,0,0,1,41,24c0,.33-.08.64-.14,1l-.12.62a19.58,19.58,0,0,1-4.53,9c-.16.2-.35.4-.54.6l-.38.39c-.21.21-.43.41-.65.6L34,36.7a19.65,19.65,0,0,1-10.51,4.39c-.66.06-1.33.1-2,.1A19.26,19.26,0,0,1,18.62,41h0a19.72,19.72,0,1,1,22.61-19.5Z"/><polygon class="cls-4" points="32.92 31.2 13.84 21.71 22.11 6.06 32.92 31.2"/><polygon class="cls-4" points="30.83 31.2 8.84 31.2 13.41 22.54 30.83 31.2"/><polygon class="cls-5" points="22.11 6.06 22.11 21.14 13.84 21.71 22.11 6.06"/><polygon class="cls-6" points="13.84 21.71 22.11 21.14 32.92 31.2 13.84 21.71"/><polygon class="cls-7" points="8.84 31.2 15.27 28.39 13.41 22.54 8.84 31.2"/><polygon class="cls-8" points="13.41 22.54 15.27 28.39 30.83 31.2 13.41 22.54"/><polygon class="cls-9" points="8.84 31.2 15.27 28.39 30.83 31.2 8.84 31.2"/><polygon class="cls-10" points="22.11 6.06 22.11 21.14 32.92 31.2 22.11 6.06"/></g></g></svg>