<svg id="Layer_1" data-name="Layer 1" xmlns="http://www.w3.org/2000/svg" viewBox="0 0 329.6 463.12"><defs><style>.cls-1{fill:#750ebc;}.cls-2{fill:#212121;}.cls-3,.cls-4{isolation:isolate;font-size:75.31px;font-family:BerlinSansFB-Bold, Berlin Sans FB;font-weight:700;letter-spacing:0.03em;}.cls-3{fill:#dadada;}.cls-4{fill:none;stroke:#000;stroke-miterlimit:10;stroke-width:3.27px;}.cls-5{fill:#aa14e6;}.cls-6{fill:#4d4dff;}.cls-7{fill:#0039b5;}.cls-8{fill:#666;}.cls-9{fill:#4d4d4d;}.cls-10{fill:#333;}.cls-11{fill:#1a1aff;}</style></defs><path class="cls-1" d="M260.26,271.13c-1.65,1.49-3.33,2.93-5,4.35a149.26,149.26,0,0,1-34.18,21.09,146.81,146.81,0,0,1-44.69,11.83h0a148.93,148.93,0,0,1-36.84-.82l-69.2-69.2H227.69Z" transform="translate(0)"/><path class="cls-1" d="M306,191.62a147.6,147.6,0,0,1-38.1,72.06l-25.3-25.3L165.25,50.75Z" transform="translate(0)"/><path class="cls-2" d="M161.19,322.38a163.84,163.84,0,0,1-23.63-1.72A161.19,161.19,0,0,1,0,161.19C0,72.31,72.31,0,161.19,0S322.38,72.31,322.38,161.19a162.94,162.94,0,0,1-1.26,20.24c-.54,4.31-1.27,8.66-2.16,12.91a160.59,160.59,0,0,1-41.46,78.49c-2.73,2.85-5.55,5.59-8.36,8.12-1.68,1.52-3.47,3.06-5.45,4.7a160.7,160.7,0,0,1-86,35.9l-.71.07C171.73,322.12,166.42,322.38,161.19,322.38Zm0-296c-74.31,0-134.77,60.46-134.77,134.77,0,66.38,49.43,123.7,115,133.32a136.82,136.82,0,0,0,33.59.75l.67-.07a133.56,133.56,0,0,0,40-10.71,135.23,135.23,0,0,0,31.13-19.21c1.65-1.36,3.15-2.66,4.57-3.94,2.35-2.12,4.7-4.4,7-6.79a134.2,134.2,0,0,0,34.69-65.62c.75-3.56,1.36-7.18,1.81-10.78a137.13,137.13,0,0,0,1.06-16.95C296,86.88,235.5,26.42,161.19,26.42Z" transform="translate(0)"/><text class="cls-3" transform="translate(13.04 397.42)">AGILITY</text><text class="cls-4" transform="translate(13.04 397.42)">AGILITY</text><polygon class="cls-5" points="242.64 238.38 106.11 167.59 165.25 50.76 242.64 238.38"/><polygon class="cls-5" points="227.69 238.38 70.28 238.38 103 173.72 227.69 238.38"/><polygon class="cls-6" points="165.25 50.76 165.25 163.31 106.11 167.59 165.25 50.76"/><polygon class="cls-7" points="106.11 167.59 165.25 163.31 242.64 238.38 106.11 167.59"/><polygon class="cls-8" points="70.28 238.38 116.32 217.41 103 173.72 70.28 238.38"/><polygon class="cls-9" points="103 173.72 116.32 217.41 227.69 238.38 103 173.72"/><polygon class="cls-10" points="70.28 238.38 116.32 217.41 227.69 238.38 70.28 238.38"/><polygon class="cls-11" points="165.25 50.76 165.25 163.31 242.64 238.38 165.25 50.76"/><path d="M16.19,450.62a11.32,11.32,0,0,1-3.49-5,21,21,0,0,1-1.24-7.52V427.57a20.89,20.89,0,0,1,1.24-7.51,11.32,11.32,0,0,1,3.49-5,8.23,8.23,0,0,1,5.24-1.78A7.88,7.88,0,0,1,26,414.69a11,11,0,0,1,3.46,4,18.17,18.17,0,0,1,1.88,6H27.18a10.07,10.07,0,0,0-1.25-3.21,6.78,6.78,0,0,0-2.06-2.17,4.43,4.43,0,0,0-2.44-.77,4.59,4.59,0,0,0-3.08,1.14,7.31,7.31,0,0,0-2,3.17,14.22,14.22,0,0,0-.73,4.76v10.52a14.21,14.21,0,0,0,.73,4.75,7.34,7.34,0,0,0,2,3.18,4.69,4.69,0,0,0,5.53.41,6.46,6.46,0,0,0,2.05-2.11A9.67,9.67,0,0,0,27.18,441H31.3a17.81,17.81,0,0,1-1.89,6,11.23,11.23,0,0,1-3.47,4,7.75,7.75,0,0,1-4.51,1.41A8.25,8.25,0,0,1,16.19,450.62Z" transform="translate(0)"/><path d="M39.91,451A8.55,8.55,0,0,1,37,446.91a18.55,18.55,0,0,1-1-6.44V436a18.16,18.16,0,0,1,1-6.37,8.52,8.52,0,0,1,2.89-4,8.15,8.15,0,0,1,9.1,0,8.58,8.58,0,0,1,2.89,4,18.16,18.16,0,0,1,1,6.37v4.54a18.27,18.27,0,0,1-1,6.39,8.76,8.76,0,0,1-2.89,4,8.15,8.15,0,0,1-9.1,0Zm7.81-5.49a9,9,0,0,0,1.15-5V436A8.94,8.94,0,0,0,47.72,431,3.92,3.92,0,0,0,42.28,430,3.83,3.83,0,0,0,41.2,431,8.94,8.94,0,0,0,40.05,436v4.54a9,9,0,0,0,1.15,5,3.89,3.89,0,0,0,5.38,1.14A4,4,0,0,0,47.72,445.5Z" transform="translate(0)"/><path d="M59.5,450.29q-1.87-2.1-1.87-6.37,0-4.07,1.71-6.09a6.45,6.45,0,0,1,5.19-2h5.81l.27,4.32H64.5a2.92,2.92,0,0,0-2.36.94,4.41,4.41,0,0,0-.78,2.86,4.15,4.15,0,0,0,1,3.09,4.37,4.37,0,0,0,3.14,1,6.93,6.93,0,0,0,3.44-.66,2.23,2.23,0,0,0,1.13-2.06l.42,3.85A6,6,0,0,1,69.18,451a5.11,5.11,0,0,1-1.81,1.07,6.91,6.91,0,0,1-2.3.35A7.2,7.2,0,0,1,59.5,450.29Zm10.66-15.65a7.08,7.08,0,0,0-1.07-4.18A3.57,3.57,0,0,0,66,429a6,6,0,0,0-2.39.5,6.8,6.8,0,0,0-2.08,1.4l-2.93-2.69a8.07,8.07,0,0,1,3.06-2.91,8.65,8.65,0,0,1,4.23-1,7.77,7.77,0,0,1,4.35,1.2A7.42,7.42,0,0,1,73,429a14.3,14.3,0,0,1,.94,5.49V452H70.16Z" transform="translate(0)"/><path d="M83.56,451a8.62,8.62,0,0,1-3-4.06,17.65,17.65,0,0,1-1-6.44V436a17.18,17.18,0,0,1,1-6.35,8.52,8.52,0,0,1,3-4,8.13,8.13,0,0,1,4.78-1.39,8.77,8.77,0,0,1,3,.52,7.79,7.79,0,0,1,2.53,1.49,8.31,8.31,0,0,1,1.88,2.37l-2.9,3.48a6.58,6.58,0,0,0-2-2,4.59,4.59,0,0,0-2.42-.71,4.23,4.23,0,0,0-3.61,1.74,8.16,8.16,0,0,0-1.28,4.9v4.51a8.39,8.39,0,0,0,1.27,5,4.19,4.19,0,0,0,3.62,1.77,4.43,4.43,0,0,0,2.44-.77,6.56,6.56,0,0,0,2-2.16l2.9,3.75a8.72,8.72,0,0,1-1.9,2.33,7.71,7.71,0,0,1-2.53,1.46,8.75,8.75,0,0,1-3,.5A8.07,8.07,0,0,1,83.56,451Z" transform="translate(0)"/><path d="M100.18,413.65h4V452h-4Zm12.41,21.75a7.67,7.67,0,0,0-1.12-4.48,4,4,0,0,0-6.2-.21,6.22,6.22,0,0,0-1.07,3.88l-.41-5.28a9.35,9.35,0,0,1,2.47-3.75,5,5,0,0,1,3.38-1.34,5.77,5.77,0,0,1,5.15,2.92q1.81,2.91,1.82,8.24V452h-4Z" transform="translate(0)"/><path d="M122.72,413.65h4V419h-4Zm0,11h4V452h-4Z" transform="translate(0)"/><path d="M132.85,424.62h4V452h-4Zm12.41,10.78a7.67,7.67,0,0,0-1.12-4.48,3.93,3.93,0,0,0-6.16-.18,6.31,6.31,0,0,0-1.07,3.93l-.42-5.28a9.44,9.44,0,0,1,2.48-3.82,5,5,0,0,1,3.37-1.35,5.77,5.77,0,0,1,5.16,2.92q1.81,2.91,1.82,8.24V452h-4Z" transform="translate(0)"/><path d="M158,451.16a8.16,8.16,0,0,1-2.42-3.81,19.33,19.33,0,0,1-.82-6v-6a20,20,0,0,1,.8-6,8,8,0,0,1,2.36-3.81,5.59,5.59,0,0,1,3.71-1.3A5,5,0,0,1,165,425.5a8.84,8.84,0,0,1,2.44,3.56l-.42,5.59a8.27,8.27,0,0,0-.47-3,4,4,0,0,0-1.37-1.88,3.68,3.68,0,0,0-2.18-.65,3.47,3.47,0,0,0-3.08,1.66,8.38,8.38,0,0,0-1.09,4.67v6a8.13,8.13,0,0,0,1.09,4.6,3.51,3.51,0,0,0,3.08,1.62,3.61,3.61,0,0,0,2.18-.67A4.19,4.19,0,0,0,166.5,445a8.72,8.72,0,0,0,.47-3l.28,5.77a8,8,0,0,1-2,3.4,4.65,4.65,0,0,1-3.42,1.37A5.83,5.83,0,0,1,158,451.16Zm.08,10.81a7.57,7.57,0,0,1-2.83-3.23l2.72-3.3a6.46,6.46,0,0,0,1.88,2.24,3.84,3.84,0,0,0,2.3.8,4.18,4.18,0,0,0,3.56-1.71A7.94,7.94,0,0,0,167,452V424.62h4v26.55a18.16,18.16,0,0,1-1,6.46,8.63,8.63,0,0,1-3,4.09,8,8,0,0,1-4.75,1.4A7.66,7.66,0,0,1,158.12,462Z" transform="translate(0)"/><path d="M192.5,450.62a11.31,11.31,0,0,1-3.5-5,21,21,0,0,1-1.24-7.52V427.57a20.89,20.89,0,0,1,1.24-7.51,11.37,11.37,0,0,1,3.5-5,8.18,8.18,0,0,1,5.23-1.78,7.88,7.88,0,0,1,4.53,1.41,11,11,0,0,1,3.46,4,17.8,17.8,0,0,1,1.88,6h-4.1a9.54,9.54,0,0,0-1.25-3.21,6.78,6.78,0,0,0-2.06-2.17,4.43,4.43,0,0,0-2.44-.77,4.57,4.57,0,0,0-3.07,1.14,7.26,7.26,0,0,0-2.05,3.17,14.22,14.22,0,0,0-.73,4.76v10.52a14.21,14.21,0,0,0,.73,4.75,7.29,7.29,0,0,0,2.05,3.18,4.65,4.65,0,0,0,3.07,1.12,4.72,4.72,0,0,0,2.45-.71,6.36,6.36,0,0,0,2.05-2.11A9.67,9.67,0,0,0,203.5,441h4.12a17.81,17.81,0,0,1-1.89,6,11.15,11.15,0,0,1-3.47,4,7.75,7.75,0,0,1-4.51,1.41A8.22,8.22,0,0,1,192.5,450.62Z" transform="translate(0)"/><path d="M217,444.92a3,3,0,0,0,.33,1.55,1,1,0,0,0,.91.54h1.89v5.11h-2.36a4,4,0,0,1-3.54-1.9,9.71,9.71,0,0,1-1.25-5.35V413.65h4Z" transform="translate(0)"/><path d="M225.31,450.29c-1.24-1.4-1.87-3.52-1.87-6.37s.57-4.74,1.72-6.09a6.42,6.42,0,0,1,5.18-2h5.81l.28,4.32h-6.07a2.92,2.92,0,0,0-2.36.94,4.48,4.48,0,0,0-.77,2.86,4.15,4.15,0,0,0,1,3.09,4.37,4.37,0,0,0,3.14,1,6.93,6.93,0,0,0,3.44-.66,2.2,2.2,0,0,0,1.13-2.06l.42,3.85a5.91,5.91,0,0,1-1.31,1.82,5.11,5.11,0,0,1-1.81,1.07,6.91,6.91,0,0,1-2.3.35A7.37,7.37,0,0,1,225.31,450.29ZM236,434.64a7,7,0,0,0-1.07-4.18,3.53,3.53,0,0,0-3-1.49,6,6,0,0,0-2.4.5,6.8,6.8,0,0,0-2.08,1.4l-2.92-2.69a8.07,8.07,0,0,1,3.06-2.91,8.65,8.65,0,0,1,4.23-1,7.77,7.77,0,0,1,4.35,1.2A7.42,7.42,0,0,1,238.9,429a14.31,14.31,0,0,1,.95,5.49V452H236Z" transform="translate(0)"/><path d="M249.74,451.91a10.46,10.46,0,0,1-3-1.42,12.47,12.47,0,0,1-2.54-2.38l2.38-3.93a13.38,13.38,0,0,0,3.32,2.57,7,7,0,0,0,3.24.84,5.48,5.48,0,0,0,3.57-1,3.6,3.6,0,0,0,1.19-3,2.7,2.7,0,0,0-.65-2,3.18,3.18,0,0,0-1.61-.89,25.15,25.15,0,0,0-2.72-.41h-1a12.24,12.24,0,0,1-3.37-.78,4.81,4.81,0,0,1-2.29-2.12,8.94,8.94,0,0,1-.92-4.46,11.58,11.58,0,0,1,.89-4.83,6.1,6.1,0,0,1,2.64-2.88,9.07,9.07,0,0,1,4.39-1,11.33,11.33,0,0,1,5.82,1.57,14,14,0,0,1,2.54,2l-2.43,3.93a12.56,12.56,0,0,0-3-2,7.11,7.11,0,0,0-2.91-.66,4.36,4.36,0,0,0-3.07.94,3.64,3.64,0,0,0-1,2.8,2.24,2.24,0,0,0,.59,1.67,2.9,2.9,0,0,0,1.46.73,21.6,21.6,0,0,0,2.53.32h.75a13.41,13.41,0,0,1,3.65.76,5.11,5.11,0,0,1,2.53,2.3,9.71,9.71,0,0,1,1,5,11.17,11.17,0,0,1-1,4.9,6.28,6.28,0,0,1-2.85,2.91,10.34,10.34,0,0,1-4.77,1A11.63,11.63,0,0,1,249.74,451.91Z" transform="translate(0)"/><path d="M270.66,451.91a10.46,10.46,0,0,1-3-1.42,12.52,12.52,0,0,1-2.55-2.38l2.39-3.93a13.29,13.29,0,0,0,3.29,2.54,7,7,0,0,0,3.23.84,5.51,5.51,0,0,0,3.58-1,3.66,3.66,0,0,0,1.19-3,2.7,2.7,0,0,0-.65-2,3.17,3.17,0,0,0-1.62-.89,25.15,25.15,0,0,0-2.72-.41h-.95a12.24,12.24,0,0,1-3.37-.78,4.83,4.83,0,0,1-2.3-2.12,8.93,8.93,0,0,1-.91-4.46,11.77,11.77,0,0,1,.88-4.83,6.1,6.1,0,0,1,2.64-2.88,9.08,9.08,0,0,1,4.4-1,11.33,11.33,0,0,1,5.77,1.57,13.25,13.25,0,0,1,2.54,2l-2.42,3.93a12.56,12.56,0,0,0-3-2,7.1,7.1,0,0,0-2.9-.66,4.39,4.39,0,0,0-3.08.94,3.64,3.64,0,0,0-1,2.8,2.19,2.19,0,0,0,.58,1.67,2.93,2.93,0,0,0,1.47.73,19.29,19.29,0,0,0,2.52.32h.75a13.48,13.48,0,0,1,3.66.76,5.2,5.2,0,0,1,2.53,2.3,9.71,9.71,0,0,1,1,5,11.16,11.16,0,0,1-.94,4.9,6.33,6.33,0,0,1-2.85,2.91,10.38,10.38,0,0,1-4.78,1A11.72,11.72,0,0,1,270.66,451.91Z" transform="translate(0)"/><path d="M291.28,451a8.76,8.76,0,0,1-3.06-4.18,18.42,18.42,0,0,1-1.06-6.66V437a21,21,0,0,1,1-6.94,9.3,9.3,0,0,1,2.94-4.37,7.35,7.35,0,0,1,4.65-1.51,6.17,6.17,0,0,1,4.38,1.72,10.91,10.91,0,0,1,2.77,5,27.91,27.91,0,0,1,1,7.77v1.8H290.08v-4.33h10a11.41,11.41,0,0,0-1.29-5.21,3.38,3.38,0,0,0-3-1.85,3.92,3.92,0,0,0-3.53,2,10.75,10.75,0,0,0-1.25,5.67v3.48a8.65,8.65,0,0,0,1.34,5.22,4.44,4.44,0,0,0,3.8,1.82,5,5,0,0,0,2.42-.66,7,7,0,0,0,2.13-1.9l2.64,3.54a11.8,11.8,0,0,1-3.41,3,7.68,7.68,0,0,1-3.8,1.06A8.2,8.2,0,0,1,291.28,451Z" transform="translate(0)"/><path d="M313.22,451.91a10.46,10.46,0,0,1-3-1.42,12.47,12.47,0,0,1-2.54-2.38l2.39-3.93a13.29,13.29,0,0,0,3.29,2.54,7,7,0,0,0,3.23.84,5.51,5.51,0,0,0,3.58-1,3.66,3.66,0,0,0,1.19-3,2.7,2.7,0,0,0-.65-2,3.37,3.37,0,0,0-1.62-.89,25.15,25.15,0,0,0-2.72-.41h-1a12.24,12.24,0,0,1-3.37-.78,4.83,4.83,0,0,1-2.3-2.12,8.93,8.93,0,0,1-.91-4.46,11.77,11.77,0,0,1,.88-4.83,6.1,6.1,0,0,1,2.64-2.88,9.08,9.08,0,0,1,4.4-1,11.33,11.33,0,0,1,5.77,1.57,13.25,13.25,0,0,1,2.54,2l-2.42,3.93a12.56,12.56,0,0,0-3-2,7.1,7.1,0,0,0-2.9-.66,4.39,4.39,0,0,0-3.08.94,3.64,3.64,0,0,0-1,2.8,2.19,2.19,0,0,0,.58,1.67,2.93,2.93,0,0,0,1.47.73,19.29,19.29,0,0,0,2.52.32H318a13.41,13.41,0,0,1,3.65.76,5.17,5.17,0,0,1,2.54,2.3,9.71,9.71,0,0,1,1,5,11,11,0,0,1-.95,4.9,6.31,6.31,0,0,1-2.84,2.91,10.38,10.38,0,0,1-4.78,1A11.89,11.89,0,0,1,313.22,451.91Z" transform="translate(0)"/></svg>